<?xml version="1.0" encoding="UTF-8"?>
<svg width="84px" height="84px" viewBox="0 0 84 84" version="1.1" xmlns="http://www.w3.org/2000/svg" xmlns:xlink="http://www.w3.org/1999/xlink">
    <!-- Generator: Sketch 53.2 (72643) - https://sketchapp.com -->
    <title>Group</title>
    <desc>Created with Sketch.</desc>
    <defs>
        <polygon id="path-1" points="0 31.9999992 31.9999992 31.9999992 31.9999992 0 0 0"></polygon>
    </defs>
    <g id="Page-1" stroke="none" stroke-width="1" fill="none" fill-rule="evenodd">
        <g id="Group" transform="translate(1.000000, 1.000000)">
            <g id="PICTO-LOCALISATION" transform="translate(25.000000, 25.000000)">
                <g id="g10" transform="translate(16.000000, 16.000000) scale(-1, 1) rotate(-180.000000) translate(-16.000000, -16.000000) translate(0.000000, 0.000001)">
                    <g id="g12">
                        <g id="g14-Clipped">
                            <mask id="mask-2" fill="white">
                                <use xlink:href="#path-1"></use>
                            </mask>
                            <g id="path16"></g>
                            <g id="g14" mask="url(#mask-2)">
                                <g transform="translate(5.333333, 0.000000)" id="g20">
                                    <g transform="translate(0.000000, -0.000133)">
                                        <path d="M10.6666664,31.9999992 C5.06933321,31.9999992 0,27.462666 0,21.8639995 C0,16.2666663 4.62533322,9.58399976 10.6666664,0 C16.7079996,9.58399976 21.3333328,16.2666663 21.3333328,21.8639995 C21.3333328,27.462666 16.2653329,31.9999992 10.6666664,31.9999992 M1.3333333,21.8639995 C1.3333333,26.5533327 5.69466652,30.6666659 10.6666664,30.6666659 C15.6386663,30.6666659 19.9999995,26.5533327 19.9999995,21.8639995 C19.9999995,17.2573329 16.5826663,11.8066664 10.6666664,2.4946666 C4.68133322,11.925333 1.3333333,17.2573329 1.3333333,21.8639995 M10.6666664,25.3333327 C8.45733312,25.3333327 6.6666665,23.5426661 6.6666665,21.3333328 C6.6666665,19.1239995 8.45733312,17.3333329 10.6666664,17.3333329 C12.8759997,17.3333329 14.6666663,19.1239995 14.6666663,21.3333328 C14.6666663,23.5426661 12.8759997,25.3333327 10.6666664,25.3333327 M10.6666664,18.6666662 C9.19466644,18.6666662 7.9999998,19.8613328 7.9999998,21.3333328 C7.9999998,22.8053328 9.19466644,23.9999994 10.6666664,23.9999994 C12.1386664,23.9999994 13.333333,22.8053328 13.333333,21.3333328 C13.333333,19.8613328 12.1386664,18.6666662 10.6666664,18.6666662" id="path22" fill="#000000" fill-rule="nonzero"></path>
                                    </g>
                                </g>
                            </g>
                        </g>
                    </g>
                </g>
            </g>
            <circle id="Oval" stroke="#3D3D3D" stroke-width="2" cx="41" cy="41" r="41"></circle>
        </g>
    </g>
</svg>