<?xml version="1.0" encoding="UTF-8"?>
<svg width="430px" height="131px" viewBox="0 0 430 131" version="1.1" xmlns="http://www.w3.org/2000/svg" xmlns:xlink="http://www.w3.org/1999/xlink">
    <!-- Generator: Sketch 53.2 (72643) - https://sketchapp.com -->
    <title>01-NanoXplore-01</title>
    <desc>Created with Sketch.</desc>
    <g id="Page-1" stroke="none" stroke-width="1" fill="none" fill-rule="evenodd">
        <g id="01-NanoXplore-01" fill="#FFFFFF" fill-rule="nonzero">
            <g id="Group" transform="translate(180.000000, 50.000000)">
                <path d="M26.6,30.9 L20.8,30.9 C19.2,30.9 18.4,30.5 17.7,29.1 L7.2,10.2 L6.8,10.2 L6.8,30.9 L1.13686838e-13,30.9 L1.13686838e-13,0.3 L6.7,0.3 C8.4,0.3 9.1,0.7 9.8,2.1 L19.4,19.5 L19.8,19.5 L19.8,0.2 L26.6,0.2 L26.6,30.9 L26.6,30.9 Z" id="Path"></path>
                <path d="M34.4,8.2 C35.4,7.2 36.5,6.8 38.7,6.8 L47.4,6.8 C49.8,6.8 51.3,7.2 52.2,8.2 C53.3,9.3 53.6,10.6 53.6,14.6 L53.6,30.9 L47,30.9 L47,28.1 C44.1,30.5 43.1,30.9 40.9,30.9 L37.6,30.9 C35.5,30.9 34.3,30.6 33.4,29.7 C32.6,28.9 32,27.5 32,24.3 C32,21.3 32.4,19.5 33.5,18.4 C34.6,17.3 36,16.8 40.3,16.8 C42.6,16.8 45,17.1 47,17.5 L47,15.4 C47,13 46.9,12.6 46.6,12.2 C46.3,11.9 45.9,11.9 44.8,11.9 L41.4,11.9 C40.5,11.9 40,12 39.7,12.2 C39.4,12.6 39.3,13 39.2,14.5 L32.9,14.5 C33,10.6 33.4,9.2 34.4,8.2 Z M47,25 L47,21 L42.6,21 C40.1,21 39.5,21.2 39,21.6 C38.6,22 38.5,22.6 38.5,23.7 C38.5,24.9 38.6,25.6 38.9,25.9 C39.2,26.2 39.7,26.3 40.6,26.3 L42.5,26.3 C43.8,26.2 44.8,26.1 47,25 Z" id="Shape"></path>
                <path d="M59.4,30.9 L59.4,6.8 L66.1,6.8 L66.1,10 C69.2,7.2 70.2,6.8 72.4,6.8 L75.3,6.8 C77.4,6.8 78.7,7.2 79.6,8.2 C80.6,9.2 81,10.4 81,14 L81,31 L74.3,31 L74.3,14.8 C74.3,13.8 74.1,13.2 73.8,12.8 C73.4,12.4 73,12.3 71.8,12.3 L69.9,12.3 C68.8,12.3 67.7,12.6 66.1,13.3 L66.1,31 L59.4,31 L59.4,30.9 Z" id="Path"></path>
                <path d="M88.3,29.5 C86.7,27.9 86.1,25.7 86.1,19 C86.1,12.2 86.7,10 88.3,8.4 C89.3,7.4 90.6,7 93.1,7 L101.3,7 C103.7,7 105,7.4 106.1,8.4 C107.7,10 108.3,12.2 108.3,19 C108.3,25.8 107.7,28 106.1,29.5 C105.1,30.6 103.8,31 101.3,31 L93.1,31 C90.6,30.9 89.4,30.5 88.3,29.5 Z M93.4,25.2 C93.7,25.5 94,25.6 95.1,25.6 L99.3,25.6 C100.4,25.6 100.8,25.5 101,25.2 C101.4,24.8 101.6,24.1 101.6,18.9 C101.6,13.7 101.4,13 101,12.6 C100.7,12.3 100.4,12.2 99.3,12.2 L95.1,12.2 C94,12.2 93.6,12.3 93.4,12.6 C93,13 92.8,13.8 92.8,18.9 C92.8,24 93,24.9 93.4,25.2 Z" id="Shape"></path>
            </g>
            <g id="Group" transform="translate(290.000000, 48.000000)">
                <polygon id="Path" points="15 22.7 14.6 22.7 7.9 33 0.4 33 10.7 17.5 0.6 2.4 8.6 2.4 15 12.1 15.4 12.1 21.7 2.4 29.3 2.4 19.2 17.4 29.6 33 21.7 33"></polygon>
                <path d="M39.8,8.9 L39.8,12 C42.8,9.4 43.8,8.9 45.8,8.9 L48.3,8.9 C50.9,8.9 52.2,9.3 53.3,10.4 C54.7,11.8 55.3,14 55.3,21 C55.3,27.9 54.6,30.1 53.2,31.5 C52.1,32.6 50.7,33 48.3,33 L45.7,33 C43.7,33 42.6,32.6 39.8,30.2 L39.8,39.9 L33.1,39.9 L33.1,8.9 L39.8,8.9 Z M39.8,15.2 L39.8,26.7 C41.2,27.4 42.2,27.6 43.4,27.6 L45.8,27.6 C47,27.6 47.6,27.5 48,27.1 C48.6,26.5 48.7,25.4 48.7,20.9 C48.7,16.4 48.5,15.3 48,14.7 C47.6,14.3 47,14.1 45.8,14.1 L43.5,14.1 C42.2,14.2 41.2,14.5 39.8,15.2 Z" id="Shape"></path>
                <polygon id="Path" points="60.4 32.9 60.4 0.6 67.1 0.6 67.1 32.9"></polygon>
                <path d="M74.4,31.5 C72.8,29.9 72.2,27.7 72.2,21 C72.2,14.2 72.8,12 74.4,10.4 C75.4,9.4 76.7,9 79.2,9 L87.4,9 C89.8,9 91.1,9.4 92.2,10.4 C93.8,12 94.4,14.2 94.4,21 C94.4,27.8 93.8,30 92.2,31.5 C91.2,32.6 89.9,33 87.4,33 L79.2,33 C76.8,32.9 75.5,32.5 74.4,31.5 Z M79.5,27.2 C79.8,27.5 80.1,27.6 81.2,27.6 L85.4,27.6 C86.5,27.6 86.9,27.5 87.1,27.2 C87.5,26.8 87.7,26.1 87.7,20.9 C87.7,15.7 87.5,15 87.1,14.6 C86.8,14.3 86.5,14.2 85.4,14.2 L81.2,14.2 C80.1,14.2 79.7,14.3 79.5,14.6 C79.1,15 78.9,15.8 78.9,20.9 C78.9,26 79.1,26.9 79.5,27.2 Z" id="Shape"></path>
                <path d="M99.5,32.9 L99.5,8.8 L106.2,8.8 L106.2,12.5 C108.7,9.9 110,8.8 111.9,8.8 L114.5,8.8 L114.5,15.4 L111.4,15.4 C109.6,15.4 108.2,15.6 106.2,16.4 L106.2,32.9 L99.5,32.9 Z" id="Path"></path>
                <path d="M124.3,22.4 C124.3,26.2 124.6,27.2 124.9,27.5 C125.2,27.8 125.9,27.9 127,27.9 L131.1,27.9 C132.5,27.9 132.8,27.8 133.1,27.5 C133.3,27.2 133.4,26.6 133.5,24.9 L139.7,24.9 C139.7,28.5 139.3,30.3 138.1,31.5 C137.4,32.2 136.4,32.9 133.8,32.9 L124.9,32.9 C122.5,32.9 121.2,32.5 120.1,31.4 C118.5,29.8 117.9,27.9 117.9,20.9 C117.9,13.8 118.5,11.9 120.1,10.3 C121.1,9.3 122.4,8.9 124.9,8.9 L133,8.9 C135.4,8.9 136.8,9.3 137.8,10.3 C139.4,11.9 139.7,13.8 139.7,20.7 L139.7,21.5 C139.7,22.2 139.5,22.5 138.7,22.5 L124.3,22.5 L124.3,22.4 Z M124.3,18.7 L133.2,18.7 C133.2,15.5 133,14.6 132.7,14.2 C132.4,13.9 132,13.8 130.7,13.8 L127,13.8 C125.9,13.8 125.2,13.9 124.9,14.2 C124.5,14.6 124.3,15.3 124.3,18.7 Z" id="Shape"></path>
            </g>
            <g id="Group">
                <path d="M137.7,85.6 L128.3,74.7 C127.1,73.4 127,71.4 128.1,70 L158.3,26.8 L158.3,26.8 L158.4,26.6 C160.2,24.1 158.4,20.6 155.3,20.6 L153,20.6 L142.4,20.6 L140.4,20.6 L117.1,54 C115.7,56.1 112.7,56.2 111,54.3 L111,54.3 L64.6,0.5 L105.1,59.3 L131.8,98 L138.2,107.1 L152.4,127.5 L152.4,127.5 L152.8,128.1 C154,129.8 155.2,130.5 156.4,130.5 L158.1,130.5 L168.1,130.5 L176.5,130.5 L137.7,85.6 Z" id="Path"></path>
                <path d="M78.3,75.4 L78.3,45.5 L78.3,44.3 L77.7,43.3 L77.7,43.3 L73.4,36.2 L58.3,11.3 L58.3,26.3 L58.3,77 L57,77 L28.8,25.8 C26.5,21.6 24.4,20.4 19.6,20.4 L4.2,20.4 L5.68434189e-14,20.4 L5.68434189e-14,24.6 L5.68434189e-14,106 L5.68434189e-14,110.2 L4.2,110.2 L10.8,110.2 L15.8,110.2 C18.1,110.2 20,108.3 20,106 L20,49.4 L21.3,49.4 L52.2,104.8 C52.2,104.8 52.2,104.8 52.2,104.9 C53.7,107.6 57.5,107.7 59.3,105.2 L77.6,79.1 C78.1,78.4 78.4,77.5 78.4,76.7 L78.4,75.4 L78.3,75.4 Z" id="Path"></path>
                <path d="M105.6,91.9 L105.6,91.9 L105.6,91.9 L98.2,81.2 L77.8,110.4 L77.8,110.4 L77.8,110.4 L78.3,110.4 L78.3,110.4 L95.3,110.4 L95.3,110.4 C98.2,110.4 100.9,108.9 102.6,106.5 L104.1,104.4 L104.1,104.4 L109.2,97.1 L105.6,91.9 L105.6,91.9 Z" id="Path"></path>
            </g>
        </g>
    </g>
</svg>